HIERARCHY
ROOT Hips
{
 OFFSET 0.000000 0.000000 0.000000
 CHANNELS 6 Xposition Yposition Zposition Yrotation Xrotation Zrotation
 JOINT Chest
 {
  OFFSET 0.000000 9.585900 0.002600
  CHANNELS 3 Yrotation Xrotation Zrotation
  JOINT Chest2
  {
   OFFSET 0.000000 9.601200 -0.005300
   CHANNELS 3 Yrotation Xrotation Zrotation
   JOINT Chest3
   {
    OFFSET 0.000000 9.561800 0.000000
    CHANNELS 3 Yrotation Xrotation Zrotation
    JOINT Chest4
    {
     OFFSET 0.000000 9.552100 0.000000
     CHANNELS 3 Yrotation Xrotation Zrotation
     JOINT Neck
     {
      OFFSET 0.000000 14.453000 0.000000
      CHANNELS 3 Yrotation Xrotation Zrotation
      JOINT Head
      {
       OFFSET 0.000000 8.936500 -0.011300
       CHANNELS 3 Yrotation Xrotation Zrotation
       End Site
       {
        OFFSET 0.000000 17.073600 -0.006000
       }
      }
     }
     JOINT RightCollar
     {
      OFFSET -2.921100 9.558500 0.000000
      CHANNELS 3 Yrotation Xrotation Zrotation
      JOINT RightShoulder
      {
       OFFSET -13.519700 0.000000 0.000000
       CHANNELS 3 Yrotation Xrotation Zrotation
       JOINT RightElbow
       {
        OFFSET 0.000000 -29.696600 0.000000
        CHANNELS 3 Yrotation Xrotation Zrotation
        JOINT RightWrist
        {
         OFFSET 0.000000 -24.004700 0.000000
         CHANNELS 3 Yrotation Xrotation Zrotation
         End Site
         {
          OFFSET 0.000000 -17.728500 0.000000
         }
        }
       }
      }
     }
     JOINT LeftCollar
     {
      OFFSET 2.921100 9.558500 0.000000
      CHANNELS 3 Yrotation Xrotation Zrotation
      JOINT LeftShoulder
      {
       OFFSET 13.519700 0.000000 0.000000
       CHANNELS 3 Yrotation Xrotation Zrotation
       JOINT LeftElbow
       {
        OFFSET 0.000000 -29.696600 0.000000
        CHANNELS 3 Yrotation Xrotation Zrotation
        JOINT LeftWrist
        {
         OFFSET 0.000000 -24.004700 0.000000
         CHANNELS 3 Yrotation Xrotation Zrotation
         End Site
         {
          OFFSET 0.000000 -17.728500 0.000000
         }
        }
       }
      }
     }
    }
   }
  }
 }
 JOINT RightHip
 {
  OFFSET -7.771700 -0.012900 -0.001300
  CHANNELS 3 Yrotation Xrotation Zrotation
  JOINT RightKnee
  {
   OFFSET 0.000000 -40.869800 0.001200
   CHANNELS 3 Yrotation Xrotation Zrotation
   JOINT RightAnkle
   {
    OFFSET 0.000000 -39.717900 0.002100
    CHANNELS 3 Yrotation Xrotation Zrotation
    JOINT RightToe
    {
     OFFSET 0.000000 -4.965400 11.033500
     CHANNELS 3 Yrotation Xrotation Zrotation
     End Site
     {
      OFFSET 0.000000 -1.423100 5.872300
     }
    }
   }
  }
 }
 JOINT LeftHip
 {
  OFFSET 7.771700 -0.012900 -0.001300
  CHANNELS 3 Yrotation Xrotation Zrotation
  JOINT LeftKnee
  {
   OFFSET 0.000000 -40.869800 0.001200
   CHANNELS 3 Yrotation Xrotation Zrotation
   JOINT LeftAnkle
   {
    OFFSET 0.000000 -39.717900 0.002100
    CHANNELS 3 Yrotation Xrotation Zrotation
    JOINT LeftToe
    {
     OFFSET 0.000000 -4.965400 11.033500
     CHANNELS 3 Yrotation Xrotation Zrotation
     End Site
     {
      OFFSET 0.000000 -1.423100 5.872300
     }
    }
   }
  }
 }
}
MOTION
Frames: 14
Frame Time: 0.008333
0.000000 85.388000 0.000000 0.000000 -5.767877 0.000000 0.000000 11.653817 0.000000 0.000000 -5.885947 0.000000 0.000000 -0.000000 0.000000 0.000000 -0.000000 0.000000 0.000000 12.528835 0.000000 0.000000 0.711642 0.000000 0.000000 -0.000000 0.000000 0.000000 0.000000 -90.000000 0.000000 -2.309062 0.000000 0.000000 2.309062 0.000000 0.000000 -0.000000 0.000000 0.000000 -0.000000 90.000000 0.000000 -2.309062 0.000000 0.000000 2.309062 0.000000 0.000000 8.520406 0.000000 0.000000 1.905762 0.000000 -0.000000 -4.658285 0.000000 0.000000 -0.000000 0.000000 0.000000 8.520406 0.000000 0.000000 1.905762 0.000000 -0.000000 -4.658285 0.000000 0.000000 -0.000000 0.000000
-19.809667 50.679352 8.869738 163.309882 -8.706669 0.595065 2.858331 7.922600 2.063926 0.097316 0.431621 0.081961 0.227118 0.712525 0.098530 2.537441 7.497071 1.148020 3.389893 17.613196 -1.018690 6.661229 -2.971592 -3.133486 1.058119 3.711676 -0.614725 -5.673282 -13.090450 -12.791317 -49.892937 -73.082822 80.371844 -3.103998 -0.765537 -35.450691 -4.843199 1.695569 0.299256 11.827700 -6.873928 1.573314 18.895192 -65.750321 -46.598682 2.542713 1.680471 18.625890 0.829276 -72.149465 -3.125122 -115.059493 83.361471 -113.950604 -3.265106 -13.351477 0.467071 -0.557259 0.774310 -0.268198 -8.415025 -74.913413 24.533472 106.203707 79.695362 101.330067 -16.754042 -18.199763 0.910248 -0.063766 -1.201059 -0.135407
-19.803598 50.678843 8.873889 163.322444 -8.711927 0.582007 2.878863 7.903952 2.054524 0.100436 0.430637 0.080548 0.229369 0.711572 0.096957 2.560557 7.490329 1.132318 3.371473 17.629622 -1.000998 6.631637 -2.953244 -3.090738 1.015858 3.731478 -0.569323 -5.694905 -13.092964 -12.793894 -50.495309 -73.272447 80.907605 -3.050979 -0.622735 -35.691090 -4.814633 1.711143 0.307652 11.915499 -6.738996 1.709242 20.163212 -66.246064 -48.017743 2.494621 1.778874 18.553692 0.729436 -72.144628 -3.054335 -115.094043 83.371276 -113.977881 -3.260376 -13.349771 0.442836 -0.554757 0.771191 -0.265328 -8.501863 -74.906373 24.601268 106.101531 79.667198 101.234285 -16.755449 -18.165733 0.905087 -0.032224 -1.173230 -0.112047
-19.797944 50.677985 8.879070 163.328164 -8.711415 0.574694 2.889696 7.891773 2.050755 0.116655 0.418054 0.066372 0.231855 0.710953 0.095213 2.585320 7.486492 1.118709 3.355555 17.646111 -0.986717 6.601412 -2.936567 -3.045970 1.006750 3.724726 -0.552866 -5.772394 -13.101063 -12.803976 -51.096036 -73.423128 81.472680 -2.995753 -0.487850 -35.890372 -4.801800 1.722741 0.330243 12.033626 -6.611111 1.840672 21.413243 -66.727512 -49.418401 2.454653 1.869263 18.487549 0.665545 -72.145709 -3.010039 -115.100848 83.381784 -113.975681 -3.258649 -13.347112 0.419921 -0.549930 0.771090 -0.261395 -8.545665 -74.906466 24.637485 105.994220 79.649209 101.140376 -16.774230 -18.131486 0.902580 -0.002840 -1.187160 -0.119952
-19.791690 50.676999 8.883782 163.353753 -8.714264 0.564106 2.881515 7.883417 2.047848 0.158850 0.394393 0.037230 0.209547 0.722969 0.110128 2.605229 7.484435 1.106798 3.362381 17.657781 -1.002711 6.542759 -2.907795 -2.966508 1.029073 3.704570 -0.561485 -5.876517 -13.131179 -12.812402 -51.628519 -73.512918 81.979540 -2.956343 -0.376642 -36.039164 -4.783723 1.729845 0.353155 12.175202 -6.495116 1.976477 22.662013 -67.194980 -50.832227 2.420542 1.947250 18.428645 0.606586 -72.142101 -2.983710 -115.100998 83.382019 -113.960542 -3.262847 -13.346149 0.397021 -0.538681 0.772579 -0.250392 -8.635873 -74.902947 24.696437 105.864776 79.624163 101.027664 -16.823046 -18.091768 0.893142 0.031598 -1.180681 -0.108619
-19.786803 50.676210 8.885263 163.360056 -8.731414 0.570541 2.927846 7.867890 2.012792 0.142981 0.402935 0.046671 0.208764 0.727431 0.113184 2.616867 7.479566 1.094293 3.345906 17.674839 -0.977905 6.502008 -2.848877 -2.933926 1.012412 3.708054 -0.535770 -5.920412 -13.171599 -12.828410 -52.103552 -73.596353 82.429754 -2.935983 -0.300477 -36.132797 -4.760613 1.735249 0.374609 12.348129 -6.389908 2.116837 23.934625 -67.649957 -52.285147 2.389846 2.007032 18.382839 0.575600 -72.126828 -2.972686 -115.136704 83.387303 -113.994568 -3.267603 -13.348056 0.379787 -0.530158 0.773562 -0.245683 -8.696418 -74.881042 24.743215 105.859498 79.614260 101.008303 -16.814740 -18.058616 0.895087 -0.052647 -1.179502 -0.112077
-19.779568 50.675462 8.885567 163.368925 -8.756834 0.564744 2.950961 7.868908 1.999045 0.124788 0.416554 0.060240 0.251120 0.699105 0.080099 2.587600 7.503741 1.122114 3.337003 17.683980 -0.962156 6.490841 -2.824898 -2.922677 1.001847 3.712597 -0.520331 -5.943313 -13.213578 -12.838730 -52.528234 -73.646116 82.839566 -2.935597 -0.263087 -36.170389 -4.715162 1.727128 0.377076 12.547771 -6.292194 2.260624 25.240542 -68.090507 -53.780961 2.362591 2.041815 18.343144 0.500183 -72.103424 -2.923060 -115.250083 83.400269 -114.093271 -3.292291 -13.349234 0.343250 -0.503654 0.768994 -0.232788 -8.742693 -74.852625 24.780127 105.838972 79.610549 100.988580 -16.801472 -18.040544 0.891623 -0.076823 -1.166540 -0.107890
-19.772868 50.674570 8.885608 163.386080 -8.780165 0.560143 2.956048 7.872666 1.988110 0.115683 0.424985 0.067293 0.250834 0.699169 0.080328 2.616095 7.485726 1.090829 3.326355 17.706099 -0.939076 6.474743 -2.818201 -2.889529 0.996802 3.715886 -0.494457 -5.991417 -13.234842 -12.828677 -52.917808 -73.642152 83.230115 -2.958078 -0.261411 -36.169296 -4.691058 1.738123 0.408640 12.761317 -6.202979 2.403443 26.579400 -68.517789 -55.312850 2.340665 2.056489 18.306747 0.423217 -72.084956 -2.880815 -115.392222 83.410010 -114.234741 -3.286920 -13.344095 0.324546 -0.507619 0.756811 -0.231625 -8.779501 -74.828752 24.797356 105.797376 79.603459 100.947524 -16.759439 -18.013598 0.882718 -0.040268 -1.138153 -0.083731
-19.766374 50.673481 8.886223 163.400083 -8.797327 0.554926 2.960823 7.871356 1.978062 0.120063 0.423785 0.067116 0.239921 0.708193 0.088259 2.639897 7.469186 1.063255 3.326101 17.728307 -0.938312 6.443324 -2.789969 -2.832763 1.038328 3.700587 -0.503474 -6.083068 -13.222167 -12.784409 -53.309922 -73.598248 83.635348 -2.988858 -0.284124 -36.153019 -4.667233 1.749326 0.438561 12.981800 -6.120784 2.540058 27.947591 -68.936802 -56.867804 2.322860 2.063914 18.274520 0.362533 -72.072475 -2.844581 -115.494001 83.413669 -114.337363 -3.281392 -13.337717 0.313058 -0.514118 0.746092 -0.231801 -8.813060 -74.808632 24.822761 105.738383 79.597436 100.890398 -16.751559 -17.995381 0.868598 -0.027424 -1.132159 -0.071689
-19.761875 50.671793 8.890057 163.421973 -8.790619 0.553126 2.954222 7.846707 1.962815 0.123257 0.423458 0.064934 0.241072 0.707902 0.087182 2.643397 7.466642 1.056700 3.319648 17.747074 -0.926483 6.420941 -2.719918 -2.804388 1.054007 3.701412 -0.498694 -6.125434 -13.212072 -12.761547 -53.741715 -73.546115 84.083508 -3.009131 -0.313530 -36.127216 -4.635079 1.753843 0.458629 13.210404 -6.042816 2.669592 29.337563 -69.346791 -58.433419 2.305151 2.074560 18.241350 0.319629 -72.084179 -2.833756 -115.571328 83.418721 -114.417747 -3.267078 -13.331648 0.310518 -0.529962 0.739535 -0.238285 -8.848147 -74.810512 24.847144 105.596326 79.574396 100.752542 -16.806740 -17.976433 0.852302 0.000214 -1.128540 -0.058715
-19.758020 50.670358 8.892028 163.433605 -8.792358 0.558515 2.953347 7.831049 1.943682 0.127136 0.423405 0.061997 0.241637 0.707530 0.086437 2.638110 7.473695 1.062812 3.313651 17.757732 -0.929456 6.404912 -2.684109 -2.781023 1.076223 3.692364 -0.509513 -6.159071 -13.233633 -12.744736 -54.087419 -73.473919 84.449532 -3.019978 -0.340249 -36.095387 -4.618126 1.755820 0.468083 13.481097 -5.981321 2.791971 30.746045 -69.738840 -60.015109 2.286362 2.096775 18.209985 0.296762 -72.086385 -2.834533 -115.638400 83.422064 -114.483854 -3.265213 -13.334194 0.298769 -0.526724 0.739821 -0.238048 -8.841198 -74.803711 24.839296 105.509606 79.567546 100.662767 -16.833324 -17.963562 0.850861 -0.019045 -1.111277 -0.051182
-19.754109 50.669558 8.889791 163.450459 -8.818132 0.568768 2.941117 7.840084 1.920674 0.138591 0.405420 0.048275 0.237149 0.724200 0.098615 2.633622 7.481401 1.065762 3.303181 17.768338 -0.930932 6.391887 -2.646677 -2.759135 1.097728 3.682473 -0.518677 -6.174470 -13.274008 -12.732438 -54.368076 -73.400767 84.738573 -3.024902 -0.366540 -36.064554 -4.598650 1.757417 0.477551 13.771820 -5.934657 2.915762 32.158253 -70.105290 -61.604315 2.266331 2.131043 18.188465 0.230561 -72.069407 -2.807162 -115.804325 83.422815 -114.659007 -3.265417 -13.333097 0.277031 -0.517552 0.726865 -0.232935 -8.805390 -74.773800 24.797610 105.460685 79.571729 100.610394 -16.858137 -17.948314 0.857703 -0.056360 -1.086411 -0.045362
-19.751209 50.668383 8.889833 163.471786 -8.829014 0.579177 2.920846 7.835280 1.896012 0.138355 0.404995 0.047801 0.240136 0.722862 0.096405 2.633653 7.477935 1.057399 3.295222 17.789641 -0.918187 6.381733 -2.609035 -2.738919 1.121210 3.682210 -0.514315 -6.190181 -13.287258 -12.713553 -54.701909 -73.361782 85.078565 -3.021183 -0.388888 -36.035381 -4.558364 1.760451 0.492433 14.054058 -5.895399 3.045261 33.550081 -70.446889 -63.168501 2.245894 2.170605 18.183083 0.218455 -72.062262 -2.826087 -115.903601 83.423688 -114.760624 -3.269635 -13.340000 0.262403 -0.512172 0.726552 -0.225126 -8.781039 -74.759478 24.765963 105.371033 79.561464 100.515782 -16.914425 -17.921563 0.867867 -0.024668 -1.088255 -0.043483
-19.746821 50.667101 8.890664 163.495159 -8.838269 0.578461 2.898366 7.836754 1.887742 0.139823 0.399366 0.040533 0.238478 0.717778 0.098133 2.627531 7.462652 1.032423 3.306940 17.822135 -0.884480 6.363612 -2.568773 -2.721897 1.142246 3.704089 -0.487040 -6.185373 -13.321672 -12.701156 -55.003576 -73.337948 85.381533 -3.012372 -0.395673 -36.009448 -4.471289 1.750967 0.512768 14.294762 -5.846668 3.184362 34.917488 -70.767739 -64.693974 2.230126 2.210689 18.201254 0.178631 -72.055618 -2.813965 -115.989195 83.422739 -114.847347 -3.273285 -13.348178 0.251661 -0.509974 0.729858 -0.223298 -8.793893 -74.748627 24.762604 105.278858 79.538987 100.413923 -16.906773 -17.889182 0.873606 -0.009853 -1.089536 -0.044215
